<svg fill="#000000" width="30px" height="30px" viewBox="0 0 0.9 0.9" xmlns="http://www.w3.org/2000/svg" data-name="Layer 1"><path d="M0.56 0.195A0.164 0.164 0 0 0 0.6 0.075a0.167 0.167 0 0 0 -0.112 0.057 0.156 0.156 0 0 0 -0.037 0.116 0.138 0.138 0 0 0 0.11 -0.053m0.095 0.279a0.169 0.169 0 0 1 0.081 -0.143 0.175 0.175 0 0 0 -0.137 -0.075c-0.058 -0.006 -0.112 0.034 -0.144 0.034s-0.075 -0.033 -0.124 -0.033a0.184 0.184 0 0 0 -0.155 0.095C0.11 0.467 0.159 0.637 0.225 0.73c0.03 0.045 0.068 0.097 0.117 0.095s0.066 -0.031 0.123 -0.031 0.075 0.031 0.124 0.03 0.083 -0.046 0.115 -0.092a0.412 0.412 0 0 0 0.052 -0.107 0.165 0.165 0 0 1 -0.101 -0.151"/></svg>