<svg fill="#FFFFFF" width="25px" height="25px" viewBox="-0.063 -0.125 0.75 0.75" xmlns="http://www.w3.org/2000/svg" preserveAspectRatio="xMinYMin" class="jam jam-camera"><path d="M0.177 0.156H0.125a0.063 0.063 0 0 0 -0.063 0.063v0.156a0.063 0.063 0 0 0 0.063 0.063h0.375a0.063 0.063 0 0 0 0.063 -0.063V0.219a0.063 0.063 0 0 0 -0.063 -0.063h-0.052l-0.012 -0.047A0.063 0.063 0 0 0 0.375 0.063H0.25a0.063 0.063 0 0 0 -0.061 0.047zm-0.048 -0.063C0.143 0.04 0.192 0 0.25 0h0.125a0.125 0.125 0 0 1 0.121 0.094H0.5a0.125 0.125 0 0 1 0.125 0.125v0.156a0.125 0.125 0 0 1 -0.125 0.125H0.125a0.125 0.125 0 0 1 -0.125 -0.125V0.219a0.125 0.125 0 0 1 0.125 -0.125zM0.313 0.406a0.125 0.125 0 1 1 0 -0.25 0.125 0.125 0 0 1 0 0.25m0 -0.063a0.063 0.063 0 1 0 0 -0.125 0.063 0.063 0 0 0 0 0.125m0.188 -0.094a0.031 0.031 0 1 0 0 -0.063 0.031 0.031 0 0 0 0 0.063"/></svg>