<svg fill="#000000" width="20px" height="20px" viewBox="0 0 0.6 0.6" id="at" data-name="Flat Color" xmlns="http://www.w3.org/2000/svg" class="icon flat-color"><path id="primary" d="M0.3 0.55a0.25 0.25 0 1 1 0.017 -0.5A0.255 0.255 0 0 1 0.55 0.308v0.055a0.088 0.088 0 0 1 -0.169 0.033 0.125 0.125 0 1 1 0.002 -0.188A0.025 0.025 0 0 1 0.4 0.2a0.025 0.025 0 0 1 0.025 0.025v0.138a0.038 0.038 0 0 0 0.075 0v-0.055A0.205 0.205 0 0 0 0.313 0.1 0.2 0.2 0 0 0 0.1 0.3a0.2 0.2 0 0 0 0.2 0.2 0.193 0.193 0 0 0 0.067 -0.012 0.025 0.025 0 0 1 0.017 0.047A0.248 0.248 0 0 1 0.3 0.55m0 -0.325a0.075 0.075 0 1 0 0.075 0.075 0.075 0.075 0 0 0 -0.075 -0.075" style="fill: rgb(0, 0, 0);"/></svg>