<svg width="30px" height="30px" viewBox="0 0 0.6 0.6" xmlns="http://www.w3.org/2000/svg" fill="none"><path fill="#1877F2" d="M0.563 0.3a0.263 0.263 0 0 0 -0.263 -0.263 0.263 0.263 0 0 0 -0.041 0.522v-0.183H0.192V0.3h0.067V0.242c0 -0.066 0.039 -0.102 0.099 -0.102 0.029 0 0.059 0.005 0.059 0.005v0.065h-0.033c-0.033 0 -0.043 0.02 -0.043 0.041V0.3h0.073l-0.012 0.076H0.341v0.183A0.263 0.263 0 0 0 0.563 0.3"/><path fill="#ffffff" d="M0.402 0.376 0.414 0.3H0.341V0.251c0 -0.021 0.01 -0.041 0.043 -0.041h0.033V0.145s-0.03 -0.005 -0.059 -0.005c-0.06 0 -0.099 0.036 -0.099 0.102V0.3H0.192v0.076h0.067v0.183a0.263 0.263 0 0 0 0.082 0v-0.183z"/></svg>