<svg version="1.1" id="Layer_1" xmlns="http://www.w3.org/2000/svg" xmlns:xlink="http://www.w3.org/1999/xlink" x="0px" y="0px" viewBox="0 0 30 30" style="enable-background:new 0 0 512 512;" xml:space="preserve" width="30" height="30"><path style="fill:#167EE6;" d="m28.867 12.392 -12.237 -0.001c-0.54 0 -0.978 0.438 -0.978 0.978v3.909c0 0.54 0.438 0.978 0.978 0.978h6.891c-0.755 1.958 -2.163 3.598 -3.96 4.64L22.5 27.984c4.713 -2.726 7.5 -7.509 7.5 -12.863 0 -0.762 -0.056 -1.307 -0.169 -1.921 -0.085 -0.466 -0.49 -0.808 -0.964 -0.808"/><path style="fill:#12B347;" d="M15 24.13c-3.372 0 -6.316 -1.843 -7.897 -4.569l-5.086 2.932C4.605 26.979 9.454 30 15 30c2.721 0 5.288 -0.733 7.5 -2.009v-0.007l-2.938 -5.087c-1.344 0.78 -2.899 1.233 -4.562 1.233"/><path style="fill:#0F993E;" d="M22.5 27.991v-0.007l-2.938 -5.087c-1.344 0.779 -2.899 1.233 -4.562 1.233V30c2.721 0 5.288 -0.733 7.5 -2.009"/><path style="fill:#FFD500;" d="M5.87 15c0 -1.662 0.454 -3.217 1.233 -4.561l-5.086 -2.932C0.733 9.712 0 12.272 0 15s0.733 5.288 2.016 7.493l5.086 -2.932c-0.779 -1.344 -1.233 -2.899 -1.233 -4.561"/><path style="fill:#FF4B26;" d="M15 5.87c2.199 0 4.219 0.781 5.797 2.081 0.389 0.321 0.955 0.297 1.312 -0.059l2.77 -2.77c0.405 -0.405 0.376 -1.067 -0.056 -1.442C22.178 1.387 18.739 0 15 0 9.454 0 4.605 3.021 2.016 7.507l5.086 2.932c1.581 -2.727 4.525 -4.569 7.897 -4.569"/><path style="fill:#D93F21;" d="M20.797 7.951c0.389 0.321 0.955 0.297 1.312 -0.059l2.77 -2.77c0.404 -0.405 0.376 -1.067 -0.056 -1.442C22.178 1.387 18.739 0 15 0v5.87c2.199 0 4.219 0.781 5.797 2.081"/></svg>