<svg width="24px" height="24px" viewBox="0 0 0.45 0.45" fill="none" xmlns="http://www.w3.org/2000/svg"><path d="m0.225 0.015 0.01 -0.011a0.015 0.015 0 0 0 -0.019 0zm-0.21 0.18 -0.01 -0.011L0 0.188v0.007zm0.15 0.24v0.015a0.015 0.015 0 0 0 0.015 -0.015zm0.12 0H0.27a0.015 0.015 0 0 0 0.015 0.015zm0.15 -0.24h0.015v-0.007l-0.005 -0.004zM0.045 0.45h0.12v-0.03h-0.12zm0.4 -0.266 -0.21 -0.18 -0.019 0.023 0.21 0.18zm-0.23 -0.18 -0.21 0.18 0.019 0.023 0.21 -0.18zM0.18 0.435v-0.09H0.15v0.09zm0.09 -0.09v0.09h0.03v-0.09zm0.015 0.105h0.12v-0.03h-0.12zm0.165 -0.045v-0.21h-0.03v0.21zm-0.45 -0.21v0.21h0.03v-0.21zM0.225 0.3A0.045 0.045 0 0 1 0.27 0.345h0.03A0.075 0.075 0 0 0 0.225 0.27zm0 -0.03A0.075 0.075 0 0 0 0.15 0.345h0.03A0.045 0.045 0 0 1 0.225 0.3zm0.18 0.18a0.045 0.045 0 0 0 0.045 -0.045h-0.03a0.015 0.015 0 0 1 -0.015 0.015zm-0.36 -0.03a0.015 0.015 0 0 1 -0.015 -0.015H0A0.045 0.045 0 0 0 0.045 0.45z" fill="#000000"/></svg>