<svg width="390" height="377" viewBox="0 0 390 377" fill="none" xmlns="http://www.w3.org/2000/svg">
<path d="M-11.5642 324.691C-15.9968 321.089 -18.7671 315.604 -18.7671 309.454C-18.7671 298.65 -10.0128 289.84 0.846861 289.84C11.7066 289.84 20.4054 298.65 20.4054 309.509C20.4054 315.66 17.5797 321.145 13.2025 324.746L-11.5642 324.691Z" fill="#72B579"/>
<path d="M-11.5642 324.691C-15.9968 321.089 -18.7671 315.604 -18.7671 309.454C-18.7671 298.65 -10.0128 289.84 0.84686 289.84C11.7066 289.84 20.4054 298.65 20.4054 309.509C20.4054 315.66 17.5797 321.145 13.2025 324.746L-11.5642 324.691Z" stroke="#464950" stroke-width="5.0808" stroke-miterlimit="10" stroke-linecap="round" stroke-linejoin="round"/>
<path d="M257.159 324.469C263.676 324.469 268.96 313.728 268.96 300.478C268.96 287.228 263.676 276.487 257.159 276.487C250.641 276.487 245.357 287.228 245.357 300.478C245.357 313.728 250.641 324.469 257.159 324.469Z" fill="#AECC75"/>
<path opacity="0.51" d="M250.288 300.478C250.288 288.954 254.277 279.368 259.596 277.041C258.765 276.709 257.934 276.487 257.103 276.487C250.565 276.487 245.301 287.236 245.301 300.478C245.301 313.721 250.565 324.469 257.103 324.469C257.934 324.469 258.765 324.303 259.596 323.915C254.277 321.588 250.288 312.003 250.288 300.478Z" fill="#464950"/>
<path d="M257.159 324.469C263.676 324.469 268.96 313.728 268.96 300.478C268.96 287.228 263.676 276.487 257.159 276.487C250.641 276.487 245.357 287.228 245.357 300.478C245.357 313.728 250.641 324.469 257.159 324.469Z" stroke="#464950" stroke-width="5.0808" stroke-miterlimit="10" stroke-linecap="round" stroke-linejoin="round"/>
<path d="M68.7759 232.716L67.3353 170.107H9.15833L7.71776 232.716L5.6123 324.691H70.8813L68.7759 232.716Z" fill="#F03A47"/>
<path d="M42.8452 251.443H68.9417" stroke="#DD2A40" stroke-width="3.04848" stroke-miterlimit="10"/>
<path opacity="0.85" d="M25.3921 260.031H42.1249" stroke="#464950" stroke-width="3.04848" stroke-miterlimit="10" stroke-linejoin="round"/>
<path opacity="0.85" d="M61.5176 267.068H69.884" stroke="#464950" stroke-width="3.04848" stroke-miterlimit="10" stroke-linejoin="round"/>
<path opacity="0.85" d="M53.1504 294.771H60.6857" stroke="#464950" stroke-width="3.04848" stroke-miterlimit="10" stroke-linejoin="round"/>
<path d="M60.686 284.909H68.9416" stroke="#DD2A40" stroke-width="3.04848" stroke-miterlimit="10"/>
<path d="M59.0244 306.684H63.9556" stroke="#DD2A40" stroke-width="3.04848" stroke-miterlimit="10"/>
<path d="M23.5642 239.919H68.9423L68.776 232.716H22.5669L23.5642 239.919Z" fill="#DD2A40"/>
<path d="M5.6123 324.691H24.2843L26.9993 175.093L67.4461 174.982L67.3353 170.107H9.15833L7.71776 232.716L5.6123 324.691Z" fill="#DD2A40"/>
<path d="M127.673 207.063C152.948 207.063 173.439 186.573 173.439 161.297C173.439 136.021 152.948 115.531 127.673 115.531C102.397 115.531 81.9067 136.021 81.9067 161.297C81.9067 186.573 102.397 207.063 127.673 207.063Z" fill="#50B893"/>
<path opacity="0.55" d="M90.3293 161.297C90.3293 137.417 108.613 117.803 131.94 115.697C130.555 115.586 129.169 115.476 127.729 115.476C102.463 115.476 81.9629 135.976 81.9629 161.241C81.9629 186.507 102.463 207.007 127.729 207.007C129.169 207.007 130.555 206.952 131.94 206.786C108.558 204.791 90.3293 185.177 90.3293 161.297Z" fill="#464950"/>
<path d="M127.673 161.297V173.264V196.424" stroke="#464950" stroke-width="5.0808" stroke-miterlimit="10" stroke-linecap="round" stroke-linejoin="round"/>
<path d="M144.516 168.611L127.673 178.861" stroke="#464950" stroke-width="5.0808" stroke-miterlimit="10" stroke-linecap="round" stroke-linejoin="round"/>
<path d="M127.673 186.895L113.489 175.647" stroke="#464950" stroke-width="5.0808" stroke-miterlimit="10" stroke-linecap="round" stroke-linejoin="round"/>
<path d="M127.673 207.063C152.948 207.063 173.439 186.573 173.439 161.297C173.439 136.021 152.948 115.531 127.673 115.531C102.397 115.531 81.9067 136.021 81.9067 161.297C81.9067 186.573 102.397 207.063 127.673 207.063Z" stroke="#464950" stroke-width="5.0808" stroke-miterlimit="10" stroke-linecap="round" stroke-linejoin="round"/>
<path d="M96.8669 224.681C107.577 224.681 116.259 215.999 116.259 205.289C116.259 194.579 107.577 185.897 96.8669 185.897C86.1568 185.897 77.4746 194.579 77.4746 205.289C77.4746 215.999 86.1568 224.681 96.8669 224.681Z" fill="#429977"/>
<path opacity="0.31" d="M84.6213 205.289C84.6213 195.815 91.4364 187.891 100.468 186.229C99.3041 186.008 98.1406 185.897 96.9216 185.897C86.2281 185.897 77.5293 194.596 77.5293 205.289C77.5293 215.983 86.2281 224.681 96.9216 224.681C98.1406 224.681 99.3041 224.571 100.468 224.349C91.4364 222.687 84.6213 214.764 84.6213 205.289Z" fill="#464950"/>
<path d="M101.3 210.055L117.368 220.693" stroke="#464950" stroke-width="5.0808" stroke-miterlimit="10" stroke-linecap="round" stroke-linejoin="round"/>
<path d="M96.8669 224.681C107.577 224.681 116.259 215.999 116.259 205.289C116.259 194.579 107.577 185.897 96.8669 185.897C86.1568 185.897 77.4746 194.579 77.4746 205.289C77.4746 215.999 86.1568 224.681 96.8669 224.681Z" stroke="#464950" stroke-width="5.0808" stroke-miterlimit="10" stroke-linecap="round" stroke-linejoin="round"/>
<path d="M68.7759 232.716L67.3353 170.107H9.15833L7.71776 232.716L5.6123 324.691H70.8813L68.7759 232.716Z" stroke="#464950" stroke-width="5.0808" stroke-miterlimit="10" stroke-linecap="round" stroke-linejoin="round"/>
<path d="M77.4753 233.27H-0.980469L8.16163 219.418H68.3332L77.4753 233.27Z" fill="#5A646D"/>
<path d="M77.4753 233.27H-0.980469L8.16163 219.418H68.3332L77.4753 233.27Z" stroke="#464950" stroke-width="5.0808" stroke-miterlimit="10" stroke-linecap="round" stroke-linejoin="round"/>
<path d="M32.9835 205.567H19.1318V190.33C19.1318 186.507 22.2346 183.404 26.0577 183.404C29.8807 183.404 32.9835 186.507 32.9835 190.33V205.567Z" fill="#F4FFC5"/>
<path d="M57.3628 205.567H42.957V190.33C42.957 186.507 46.0598 183.404 49.8829 183.404H50.4369C54.26 183.404 57.3628 186.507 57.3628 190.33V205.567Z" fill="#F4FFC5"/>
<path d="M26.0577 183.404C22.2346 183.404 19.1318 186.507 19.1318 190.33V196.425C19.1318 192.602 22.2346 189.499 26.0577 189.499C29.8807 189.499 32.9835 192.602 32.9835 196.425V190.33C32.9835 186.507 29.8807 183.404 26.0577 183.404Z" fill="#B7C391"/>
<path d="M50.4369 183.404H49.8829C46.0598 183.404 42.957 186.507 42.957 190.33V196.425C42.957 192.602 46.0598 189.499 49.8829 189.499H50.4369C54.26 189.499 57.3628 192.602 57.3628 196.425V190.33C57.3628 186.507 54.26 183.404 50.4369 183.404Z" fill="#B7C391"/>
<path d="M32.9835 205.567H19.1318V190.33C19.1318 186.507 22.2346 183.404 26.0577 183.404C29.8807 183.404 32.9835 186.507 32.9835 190.33V205.567Z" stroke="#464950" stroke-width="5.0808" stroke-miterlimit="10" stroke-linecap="round" stroke-linejoin="round"/>
<path d="M57.3628 205.567H42.957V190.33C42.957 186.507 46.0598 183.404 49.8829 183.404H50.4369C54.26 183.404 57.3628 186.507 57.3628 190.33V205.567Z" stroke="#464950" stroke-width="5.0808" stroke-miterlimit="10" stroke-linecap="round" stroke-linejoin="round"/>
<path d="M74.2611 170.106H2.23242L38.2467 134.979L74.2611 170.106Z" fill="#5A646D"/>
<path d="M38.2467 134.979L27.7749 170.106H2.23242L38.2467 134.979Z" fill="#4C555C"/>
<path d="M74.2611 170.106H2.23242L38.2467 134.979L74.2611 170.106Z" stroke="#464950" stroke-width="5.0808" stroke-miterlimit="10" stroke-linecap="round" stroke-linejoin="round"/>
<path d="M53.9825 268.73H22.5669V324.691H53.9825V268.73Z" fill="#F4FFC5"/>
<path d="M53.9825 268.73H22.5669V275.822H53.9825V268.73Z" fill="#B7C391"/>
<path d="M27.609 268.73H23.1211V324.691H27.609V268.73Z" fill="#B7C391"/>
<path d="M53.9825 268.73H22.5669V324.691H53.9825V268.73Z" stroke="#464950" stroke-width="5.0808" stroke-miterlimit="10" stroke-linecap="round" stroke-linejoin="round"/>
<path d="M28.2178 274.825L48.275 318.596" stroke="#464950" stroke-width="4.06464" stroke-miterlimit="10" stroke-linecap="round" stroke-linejoin="round"/>
<path d="M48.275 274.825L28.2178 318.596" stroke="#464950" stroke-width="4.06464" stroke-miterlimit="10" stroke-linecap="round" stroke-linejoin="round"/>
<path d="M221.754 195.261L171.722 170.107L121.689 195.261L105.4 223.851V323.472H238.043V223.851L221.754 195.261Z" fill="#F03A47"/>
<path d="M221.754 195.261L171.722 170.107L121.689 195.261L105.4 223.851V323.472H238.043V223.851L221.754 195.261Z" fill="#F03A47"/>
<path opacity="0.92" d="M111.051 247.897H105.4V324.137H111.051V247.897Z" fill="#DD2A40"/>
<path opacity="0.92" d="M173.384 170.107L123.352 195.261L107.062 223.851V252.884L133.713 208.947L173.384 189L213.055 208.947L239.706 252.884V223.851L223.416 195.261L173.384 170.107Z" fill="#DD2A40"/>
<g opacity="0.4">
<g opacity="0.4">
<path opacity="0.4" d="M133.324 193.377H210.118" stroke="#464950" stroke-width="1.52424" stroke-miterlimit="10" stroke-linecap="round" stroke-linejoin="round"/>
</g>
<g opacity="0.4">
<path opacity="0.4" d="M122.078 203.35H221.366" stroke="#464950" stroke-width="1.52424" stroke-miterlimit="10" stroke-linecap="round" stroke-linejoin="round"/>
</g>
<g opacity="0.4">
<path opacity="0.4" d="M115.815 213.323H227.626" stroke="#464950" stroke-width="1.52424" stroke-miterlimit="10" stroke-linecap="round" stroke-linejoin="round"/>
</g>
<g opacity="0.4">
<path opacity="0.4" d="M109.554 223.296H233.886" stroke="#464950" stroke-width="1.52424" stroke-miterlimit="10" stroke-linecap="round" stroke-linejoin="round"/>
</g>
<g opacity="0.4">
<path opacity="0.4" d="M105.399 233.27H238.043" stroke="#464950" stroke-width="1.52424" stroke-miterlimit="10" stroke-linecap="round" stroke-linejoin="round"/>
</g>
<g opacity="0.4">
<path opacity="0.4" d="M105.399 243.243H238.043" stroke="#464950" stroke-width="1.52424" stroke-miterlimit="10" stroke-linecap="round" stroke-linejoin="round"/>
</g>
<g opacity="0.4">
<path opacity="0.4" d="M105.399 253.216H238.043" stroke="#464950" stroke-width="1.52424" stroke-miterlimit="10" stroke-linecap="round" stroke-linejoin="round"/>
</g>
<g opacity="0.4">
<path opacity="0.4" d="M105.399 263.189H238.043" stroke="#464950" stroke-width="1.52424" stroke-miterlimit="10" stroke-linecap="round" stroke-linejoin="round"/>
</g>
<g opacity="0.4">
<path opacity="0.4" d="M105.399 273.163H238.043" stroke="#464950" stroke-width="1.52424" stroke-miterlimit="10" stroke-linecap="round" stroke-linejoin="round"/>
</g>
<g opacity="0.4">
<path opacity="0.4" d="M105.399 283.136H238.043" stroke="#464950" stroke-width="1.52424" stroke-miterlimit="10" stroke-linecap="round" stroke-linejoin="round"/>
</g>
<g opacity="0.4">
<path opacity="0.4" d="M105.399 293.109H238.043" stroke="#464950" stroke-width="1.52424" stroke-miterlimit="10" stroke-linecap="round" stroke-linejoin="round"/>
</g>
<g opacity="0.4">
<path opacity="0.4" d="M105.399 303.082H238.043" stroke="#464950" stroke-width="1.52424" stroke-miterlimit="10" stroke-linecap="round" stroke-linejoin="round"/>
</g>
<g opacity="0.4">
<path opacity="0.4" d="M105.399 313.055H238.043" stroke="#464950" stroke-width="1.52424" stroke-miterlimit="10" stroke-linecap="round" stroke-linejoin="round"/>
</g>
</g>
<path d="M238.043 247.897H105.4V253.327H238.043V247.897Z" fill="#DD2A40"/>
<g opacity="0.97">
<g opacity="0.97">
<path opacity="0.97" d="M133.324 195.039H210.118" stroke="#464950" stroke-width="1.52424" stroke-miterlimit="10" stroke-linecap="round" stroke-linejoin="round"/>
</g>
<g opacity="0.97">
<path opacity="0.97" d="M122.078 205.012H221.366" stroke="#464950" stroke-width="1.52424" stroke-miterlimit="10" stroke-linecap="round" stroke-linejoin="round"/>
</g>
<g opacity="0.97">
<path opacity="0.97" d="M115.815 214.985H227.626" stroke="#464950" stroke-width="1.52424" stroke-miterlimit="10" stroke-linecap="round" stroke-linejoin="round"/>
</g>
<g opacity="0.97">
<path opacity="0.97" d="M109.554 224.958H233.886" stroke="#464950" stroke-width="1.52424" stroke-miterlimit="10" stroke-linecap="round" stroke-linejoin="round"/>
</g>
<g opacity="0.97">
<path opacity="0.97" d="M105.399 234.932H238.043" stroke="#464950" stroke-width="1.52424" stroke-miterlimit="10" stroke-linecap="round" stroke-linejoin="round"/>
</g>
<g opacity="0.97">
<path opacity="0.97" d="M105.399 244.905H238.043" stroke="#464950" stroke-width="1.52424" stroke-miterlimit="10" stroke-linecap="round" stroke-linejoin="round"/>
</g>
<g opacity="0.97">
<path opacity="0.97" d="M105.399 254.878H238.043" stroke="#464950" stroke-width="1.52424" stroke-miterlimit="10" stroke-linecap="round" stroke-linejoin="round"/>
</g>
<g opacity="0.97">
<path opacity="0.97" d="M105.399 264.851H238.043" stroke="#464950" stroke-width="1.52424" stroke-miterlimit="10" stroke-linecap="round" stroke-linejoin="round"/>
</g>
<g opacity="0.97">
<path opacity="0.97" d="M105.399 274.825H238.043" stroke="#464950" stroke-width="1.52424" stroke-miterlimit="10" stroke-linecap="round" stroke-linejoin="round"/>
</g>
<g opacity="0.97">
<path opacity="0.97" d="M105.399 284.798H238.043" stroke="#464950" stroke-width="1.52424" stroke-miterlimit="10" stroke-linecap="round" stroke-linejoin="round"/>
</g>
<g opacity="0.97">
<path opacity="0.97" d="M105.399 294.771H238.043" stroke="#464950" stroke-width="1.52424" stroke-miterlimit="10" stroke-linecap="round" stroke-linejoin="round"/>
</g>
<g opacity="0.97">
<path opacity="0.97" d="M105.399 304.744H238.043" stroke="#464950" stroke-width="1.52424" stroke-miterlimit="10" stroke-linecap="round" stroke-linejoin="round"/>
</g>
<g opacity="0.97">
<path opacity="0.97" d="M105.399 314.717H238.043" stroke="#464950" stroke-width="1.52424" stroke-miterlimit="10" stroke-linecap="round" stroke-linejoin="round"/>
</g>
</g>
<path d="M221.754 195.261L171.722 170.107L121.689 195.261L105.4 223.851V323.472H238.043V223.851L221.754 195.261Z" stroke="#464950" stroke-width="5.0808" stroke-miterlimit="10" stroke-linecap="round" stroke-linejoin="round"/>
<path d="M171.722 271.224H133.325V323.472H171.722V271.224Z" fill="#F4FFC5"/>
<path d="M171.722 271.224H133.325V323.472H171.722V271.224Z" fill="#F4FFC5"/>
<path d="M171.722 271.224H133.325V278.704H171.722V271.224Z" fill="#B7C391"/>
<path d="M138.422 271.224H133.325V322.863H138.422V271.224Z" fill="#B7C391"/>
<path d="M210.118 271.224H171.721V323.472H210.118V271.224Z" fill="#F4FFC5"/>
<path d="M210.118 271.224H171.721V278.704H210.118V271.224Z" fill="#B7C391"/>
<path d="M176.819 271.224H171.721V322.863H176.819V271.224Z" fill="#B7C391"/>
<path d="M171.722 271.224H133.325V323.472H171.722V271.224Z" stroke="#464950" stroke-width="5.0808" stroke-miterlimit="10" stroke-linecap="round" stroke-linejoin="round"/>
<path d="M210.118 271.224H171.721V323.472H210.118V271.224Z" stroke="#464950" stroke-width="5.0808" stroke-miterlimit="10" stroke-linecap="round" stroke-linejoin="round"/>
<path d="M188.344 203.351H155.1V236.595H188.344V203.351Z" fill="#F4FFC5"/>
<path d="M188.344 203.351H155.1V236.595H188.344V203.351Z" fill="#F4FFC5"/>
<path d="M188.344 203.351H155.1V209.168H188.344V203.351Z" fill="#B7C391"/>
<path d="M188.344 220.25H155.1V224.682H188.344V220.25Z" fill="#B7C391"/>
<path d="M188.344 203.351H155.1V236.595H188.344V203.351Z" stroke="#464950" stroke-width="5.0808" stroke-miterlimit="10" stroke-linecap="round" stroke-linejoin="round"/>
<path d="M248.349 241.858L240.647 246.235L215.382 201.966L171.722 180.024L128.061 201.966L102.796 246.235L95.0942 241.858L121.689 195.261L171.722 170.107L221.754 195.261L248.349 241.858Z" fill="#A58167"/>
<path d="M248.349 241.858L240.647 246.235L215.382 201.966L171.722 180.024L128.061 201.966L102.796 246.235L95.0942 241.858L121.689 195.261L171.722 170.107L221.754 195.261L248.349 241.858Z" stroke="#464950" stroke-width="5.0808" stroke-miterlimit="10" stroke-linecap="round" stroke-linejoin="round"/>
<path d="M320.488 282.249C334.686 282.249 346.197 261.437 346.197 235.763C346.197 210.089 334.686 189.277 320.488 189.277C306.289 189.277 294.779 210.089 294.779 235.763C294.779 261.437 306.289 282.249 320.488 282.249Z" fill="#AECC75"/>
<path opacity="0.51" d="M301.65 236.317C301.65 212.049 311.956 192.158 325.032 190.053C323.536 189.554 322.04 189.277 320.433 189.277C306.249 189.277 294.725 210.11 294.725 235.763C294.725 261.416 306.249 282.249 320.433 282.249C321.209 282.249 321.985 282.194 322.76 282.028C310.793 278.149 301.65 259.145 301.65 236.317Z" fill="#464950"/>
<path d="M320.488 282.249C334.686 282.249 346.197 261.437 346.197 235.763C346.197 210.089 334.686 189.277 320.488 189.277C306.289 189.277 294.779 210.089 294.779 235.763C294.779 261.437 306.289 282.249 320.488 282.249Z" stroke="#464950" stroke-width="5.0808" stroke-miterlimit="10" stroke-linecap="round" stroke-linejoin="round"/>
<path d="M320.488 226.455V268.176V323.472" stroke="#464950" stroke-width="5.0808" stroke-miterlimit="10" stroke-linecap="round" stroke-linejoin="round"/>
<path d="M407.809 193.654C412.961 211.662 413.017 228.505 406.977 241.692C401.16 254.768 389.303 264.242 375.229 264.132C361.101 264.242 349.244 254.768 343.481 241.692C337.498 228.45 337.498 211.606 342.65 193.654C354.563 157.695 363.262 127.443 375.229 127.443C387.197 127.388 395.896 157.695 407.809 193.654Z" fill="#72B579"/>
<path opacity="0.51" d="M362.874 241.083C365.352 241.083 367.362 239.073 367.362 236.595C367.362 234.116 365.352 232.107 362.874 232.107C360.395 232.107 358.386 234.116 358.386 236.595C358.386 239.073 360.395 241.083 362.874 241.083Z" fill="#464950"/>
<path opacity="0.38" d="M352.07 241.581C345.754 227.729 345.809 209.999 351.239 191.105C360.547 162.737 367.916 134.923 376.061 130.158C375.729 130.103 375.562 127.332 375.23 127.332C363.262 127.332 354.563 157.64 342.651 193.543C337.498 211.55 337.443 228.394 343.482 241.581C349.3 254.657 361.157 264.131 375.23 264.02C375.839 264.02 376.393 264.02 377.003 263.965C365.977 261.195 356.946 252.607 352.07 241.581Z" fill="#464950"/>
<path d="M407.809 193.654C412.961 211.662 413.017 228.505 406.977 241.692C401.16 254.768 389.303 264.242 375.229 264.132C361.101 264.242 349.244 254.768 343.481 241.692C337.498 228.45 337.498 211.606 342.65 193.654C354.563 157.695 363.262 127.443 375.229 127.443C387.197 127.388 395.896 157.695 407.809 193.654Z" stroke="#464950" stroke-width="5.0808" stroke-miterlimit="10" stroke-linecap="round" stroke-linejoin="round"/>
<path d="M67.1138 323.472C67.1138 315.328 73.7072 308.734 81.8519 308.734C89.9967 308.734 96.5901 315.328 96.5901 323.472H67.1138Z" fill="#AECC75"/>
<path d="M67.1138 323.472C67.1138 315.328 73.7072 308.734 81.8519 308.734C89.9967 308.734 96.5901 315.328 96.5901 323.472H67.1138Z" stroke="#464950" stroke-width="5.0808" stroke-miterlimit="10" stroke-linecap="round" stroke-linejoin="round"/>
<path d="M222.252 246.235H239.151" stroke="#464950" stroke-width="5.0808" stroke-miterlimit="10" stroke-linecap="round" stroke-linejoin="round"/>
<path d="M207.126 246.235H213.775" stroke="#464950" stroke-width="5.0808" stroke-miterlimit="10" stroke-linecap="round" stroke-linejoin="round"/>
<path d="M102.795 246.235H199.757" stroke="#464950" stroke-width="5.0808" stroke-miterlimit="10" stroke-linecap="round" stroke-linejoin="round"/>
<path d="M171.721 203.904V237.536" stroke="#464950" stroke-width="3.04848" stroke-miterlimit="10" stroke-linecap="round" stroke-linejoin="round"/>
<path d="M187.235 219.973H156.207" stroke="#464950" stroke-width="3.04848" stroke-miterlimit="10" stroke-linecap="round" stroke-linejoin="round"/>
<path d="M140.14 278.703L164.907 315.992" stroke="#464950" stroke-width="4.06464" stroke-miterlimit="10" stroke-linecap="round" stroke-linejoin="round"/>
<path d="M164.907 278.703L140.14 315.992" stroke="#464950" stroke-width="4.06464" stroke-miterlimit="10" stroke-linecap="round" stroke-linejoin="round"/>
<path d="M178.536 278.703L203.303 315.992" stroke="#464950" stroke-width="4.06464" stroke-miterlimit="10" stroke-linecap="round" stroke-linejoin="round"/>
<path d="M203.303 278.703L178.536 315.992" stroke="#464950" stroke-width="4.06464" stroke-miterlimit="10" stroke-linecap="round" stroke-linejoin="round"/>
<path d="M52.2646 374.446H129.335" stroke="#464950" stroke-width="5.0808" stroke-miterlimit="10" stroke-linecap="round" stroke-linejoin="round"/>
<path d="M32.041 374.446H40.075" stroke="#464950" stroke-width="5.0808" stroke-miterlimit="10" stroke-linecap="round" stroke-linejoin="round"/>
<path d="M129.336 359.431H62.626V363.309H129.336V359.431Z" stroke="#464950" stroke-width="3.55656" stroke-miterlimit="10" stroke-linecap="round" stroke-linejoin="round"/>
<path d="M129.336 346.576H62.626V350.455H129.336V346.576Z" stroke="#464950" stroke-width="3.55656" stroke-miterlimit="10" stroke-linecap="round" stroke-linejoin="round"/>
<path d="M102.02 374.446H91.4927V333.999L96.7563 328.126L102.02 333.999V374.446Z" fill="#A58167"/>
<path opacity="0.47" d="M96.4792 336.77L101.078 331.672L98.4184 328.68L93.1548 334.553V375H96.4792V336.77Z" fill="#A58167"/>
<path d="M102.02 374.446H91.4927V333.999L96.7563 328.126L102.02 333.999V374.446Z" stroke="#464950" stroke-width="5.0808" stroke-miterlimit="10" stroke-linecap="round" stroke-linejoin="round"/>
<path d="M123.241 374.446H112.714V333.999L117.977 328.126L123.241 333.999V374.446Z" fill="#A58167"/>
<path opacity="0.47" d="M117.7 336.77L122.243 331.672L119.639 328.68L114.375 334.553V375H117.7V336.77Z" fill="#A58167"/>
<path d="M123.241 374.446H112.714V333.999L117.977 328.126L123.241 333.999V374.446Z" stroke="#464950" stroke-width="5.0808" stroke-miterlimit="10" stroke-linecap="round" stroke-linejoin="round"/>
<path d="M80.5771 374.446H70.0498V333.999L75.3134 328.126L80.5771 333.999V374.446Z" fill="#A58167"/>
<path d="M80.5771 374.446H70.0498V333.999L75.3134 328.126L80.5771 333.999V374.446Z" fill="#A58167"/>
<path opacity="0.47" d="M75.0363 336.77L79.6351 331.672L76.9755 328.68L71.7119 334.553V375H75.0363V336.77Z" fill="#A58167"/>
<path d="M80.5771 374.446H70.0498V333.999L75.3134 328.126L80.5771 333.999V374.446Z" stroke="#464950" stroke-width="5.0808" stroke-miterlimit="10" stroke-linecap="round" stroke-linejoin="round"/>
<path opacity="0.76" d="M139.752 143.068C141.771 143.068 143.408 141.43 143.408 139.411C143.408 137.391 141.771 135.754 139.752 135.754C137.732 135.754 136.095 137.391 136.095 139.411C136.095 141.43 137.732 143.068 139.752 143.068Z" fill="#464950"/>
<path opacity="0.76" d="M116.315 141.793C120.079 141.793 123.13 138.742 123.13 134.978C123.13 131.215 120.079 128.163 116.315 128.163C112.551 128.163 109.5 131.215 109.5 134.978C109.5 138.742 112.551 141.793 116.315 141.793Z" fill="#464950"/>
<path opacity="0.76" d="M113.489 163.403C114.652 163.403 115.594 162.46 115.594 161.297C115.594 160.134 114.652 159.192 113.489 159.192C112.326 159.192 111.383 160.134 111.383 161.297C111.383 162.46 112.326 163.403 113.489 163.403Z" fill="#464950"/>
<path opacity="0.67" d="M99.5268 161.13C101.975 161.13 103.959 159.146 103.959 156.698C103.959 154.25 101.975 152.265 99.5268 152.265C97.0787 152.265 95.0942 154.25 95.0942 156.698C95.0942 159.146 97.0787 161.13 99.5268 161.13Z" fill="#464950"/>
<path opacity="0.67" d="M123.85 153.152C125.961 153.152 127.673 151.44 127.673 149.329C127.673 147.217 125.961 145.506 123.85 145.506C121.739 145.506 120.027 147.217 120.027 149.329C120.027 151.44 121.739 153.152 123.85 153.152Z" fill="#464950"/>
<path opacity="0.67" d="M155.321 160.244C156.301 160.244 157.094 159.45 157.094 158.471C157.094 157.492 156.301 156.698 155.321 156.698C154.342 156.698 153.548 157.492 153.548 158.471C153.548 159.45 154.342 160.244 155.321 160.244Z" fill="#464950"/>
<path d="M404.651 199.361C411.628 199.361 417.283 193.705 417.283 186.728C417.283 179.752 411.628 174.096 404.651 174.096C397.674 174.096 392.018 179.752 392.018 186.728C392.018 193.705 397.674 199.361 404.651 199.361Z" stroke="#464950" stroke-width="5.0808" stroke-miterlimit="10" stroke-linecap="round" stroke-linejoin="round"/>
<path d="M375.23 198.364V244.905V323.472" stroke="#464950" stroke-width="5.0808" stroke-miterlimit="10" stroke-linecap="round" stroke-linejoin="round"/>
<path d="M340.989 323.971C340.989 307.792 354.12 294.66 370.299 294.66C386.478 294.66 399.609 307.792 399.609 323.971H340.989Z" fill="#72B579"/>
<path d="M340.989 323.971C340.989 307.792 354.12 294.66 370.299 294.66C386.478 294.66 399.609 307.792 399.609 323.971H340.989Z" fill="#72B579"/>
<path opacity="0.38" d="M375.452 295.104C373.79 294.827 372.072 294.66 370.299 294.66C354.12 294.66 340.989 307.792 340.989 323.971H351.35C351.35 309.565 361.711 297.542 375.452 295.104Z" fill="#464950"/>
<path d="M340.989 323.971C340.989 307.792 354.12 294.66 370.299 294.66C386.478 294.66 399.609 307.792 399.609 323.971H340.989Z" stroke="#464950" stroke-width="5.0808" stroke-miterlimit="10" stroke-linecap="round" stroke-linejoin="round"/>
<path d="M391.963 234.932L375.23 249.338" stroke="#464950" stroke-width="5.0808" stroke-miterlimit="10" stroke-linecap="round" stroke-linejoin="round"/>
<path d="M375.231 224.959L359.495 208.669" stroke="#464950" stroke-width="5.0808" stroke-miterlimit="10" stroke-linecap="round" stroke-linejoin="round"/>
<path d="M330.96 258.591L320.488 268.176" stroke="#464950" stroke-width="5.0808" stroke-miterlimit="10" stroke-linecap="round" stroke-linejoin="round"/>
<path d="M320.488 251.166L309.518 240.196" stroke="#464950" stroke-width="5.0808" stroke-miterlimit="10" stroke-linecap="round" stroke-linejoin="round"/>
<path opacity="0.51" d="M332.29 245.072C334.401 245.072 336.113 243.36 336.113 241.249C336.113 239.137 334.401 237.426 332.29 237.426C330.178 237.426 328.467 239.137 328.467 241.249C328.467 243.36 330.178 245.072 332.29 245.072Z" fill="#464950"/>
<path opacity="0.51" d="M309.019 224.627C310.029 224.627 310.847 223.808 310.847 222.798C310.847 221.788 310.029 220.97 309.019 220.97C308.009 220.97 307.19 221.788 307.19 222.798C307.19 223.808 308.009 224.627 309.019 224.627Z" fill="#464950"/>
<path opacity="0.43" d="M319.103 213.213C321.367 213.213 323.203 211.377 323.203 209.113C323.203 206.849 321.367 205.013 319.103 205.013C316.838 205.013 315.002 206.849 315.002 209.113C315.002 211.377 316.838 213.213 319.103 213.213Z" fill="#C7CAD1"/>
<path opacity="0.43" d="M377.003 168.998C378.656 168.998 379.995 167.659 379.995 166.006C379.995 164.354 378.656 163.014 377.003 163.014C375.351 163.014 374.011 164.354 374.011 166.006C374.011 167.659 375.351 168.998 377.003 168.998Z" fill="#C7CAD1"/>
<path opacity="0.51" d="M384.981 204.458C386.664 204.458 388.028 203.094 388.028 201.411C388.028 199.728 386.664 198.364 384.981 198.364C383.298 198.364 381.934 199.728 381.934 201.411C381.934 203.094 383.298 204.458 384.981 204.458Z" fill="#464950"/>
<path opacity="0.43" d="M367.362 186.562C369.841 186.562 371.85 184.553 371.85 182.074C371.85 179.596 369.841 177.586 367.362 177.586C364.883 177.586 362.874 179.596 362.874 182.074C362.874 184.553 364.883 186.562 367.362 186.562Z" fill="#C7CAD1"/>
<path opacity="0.43" d="M391.243 219.751C393.599 219.751 395.509 217.841 395.509 215.485C395.509 213.129 393.599 211.219 391.243 211.219C388.887 211.219 386.977 213.129 386.977 215.485C386.977 217.841 388.887 219.751 391.243 219.751Z" fill="#C7CAD1"/>
<path opacity="0.43" d="M329.187 226.067C330.595 226.067 331.736 224.926 331.736 223.518C331.736 222.111 330.595 220.97 329.187 220.97C327.78 220.97 326.639 222.111 326.639 223.518C326.639 224.926 327.78 226.067 329.187 226.067Z" fill="#C7CAD1"/>
<path opacity="0.35" d="M309.85 254.436C310.891 254.436 311.734 253.592 311.734 252.552C311.734 251.511 310.891 250.668 309.85 250.668C308.81 250.668 307.966 251.511 307.966 252.552C307.966 253.592 308.81 254.436 309.85 254.436Z" fill="#C7CAD1"/>
<path d="M382.433 323.971C382.433 314.219 390.356 306.352 400.052 306.352C409.748 306.352 417.671 314.275 417.671 323.971H382.433Z" fill="#AECC75"/>
<path opacity="0.51" d="M404.817 306.961C403.321 306.517 401.714 306.296 400.052 306.296C390.3 306.296 382.433 314.219 382.433 323.915H392.018C391.963 315.881 397.392 309.066 404.817 306.961Z" fill="#464950"/>
<path d="M382.433 323.971C382.433 314.219 390.356 306.352 400.052 306.352C409.748 306.352 417.671 314.275 417.671 323.971H382.433Z" stroke="#464950" stroke-width="5.0808" stroke-miterlimit="10" stroke-linecap="round" stroke-linejoin="round"/>
<path d="M388.307 374.446H399.277" stroke="#464950" stroke-width="5.0808" stroke-miterlimit="10" stroke-linecap="round" stroke-linejoin="round"/>
<path d="M223.472 374.446H379.718" stroke="#464950" stroke-width="5.0808" stroke-miterlimit="10" stroke-linecap="round" stroke-linejoin="round"/>
<path d="M207.681 374.446H213.775" stroke="#464950" stroke-width="5.0808" stroke-miterlimit="10" stroke-linecap="round" stroke-linejoin="round"/>
<path d="M375.23 345.469H216.711V347.685H375.23V345.469Z" stroke="#464950" stroke-width="4.06464" stroke-miterlimit="10" stroke-linecap="round" stroke-linejoin="round"/>
<path d="M376.893 358.323H218.375V362.201H376.893V358.323Z" stroke="#464950" stroke-width="4.06464" stroke-miterlimit="10" stroke-linecap="round" stroke-linejoin="round"/>
<path d="M236.991 374.446H226.463V333.999L231.727 328.126L236.991 333.999V374.446Z" fill="#A58167"/>
<path opacity="0.47" d="M231.45 336.769L236.049 331.672L233.39 328.68L228.126 334.553V375H231.45V336.769Z" fill="#A58167"/>
<path d="M236.991 374.446H226.463V333.999L231.727 328.126L236.991 333.999V374.446Z" stroke="#464950" stroke-width="5.0808" stroke-miterlimit="10" stroke-linecap="round" stroke-linejoin="round"/>
<path d="M289.96 374.446H279.433V333.999L284.696 328.126L289.96 333.999V374.446Z" fill="#A58167"/>
<path opacity="0.47" d="M284.419 336.769L289.018 331.672L286.358 328.68L281.095 334.553V375H284.419V336.769Z" fill="#A58167"/>
<path d="M316.444 374.446H305.917V333.999L311.181 328.126L316.444 333.999V374.446Z" fill="#A58167"/>
<path opacity="0.47" d="M310.349 336.215L314.948 331.118L312.288 328.126L307.024 333.999V374.446H310.349V336.215Z" fill="#A58167"/>
<path d="M263.476 374.446H252.948V333.999L258.212 328.126L263.476 333.999V374.446Z" fill="#A58167"/>
<path opacity="0.47" d="M257.934 336.769L262.533 331.672L259.873 328.68L254.61 334.553V375H257.934V336.769Z" fill="#A58167"/>
<path d="M289.96 374.446H279.433V333.999L284.696 328.126L289.96 333.999V374.446Z" stroke="#464950" stroke-width="5.0808" stroke-miterlimit="10" stroke-linecap="round" stroke-linejoin="round"/>
<path d="M316.444 374.446H305.917V333.999L311.181 328.126L316.444 333.999V374.446Z" stroke="#464950" stroke-width="5.0808" stroke-miterlimit="10" stroke-linecap="round" stroke-linejoin="round"/>
<path d="M263.476 374.446H252.948V333.999L258.212 328.126L263.476 333.999V374.446Z" stroke="#464950" stroke-width="5.0808" stroke-miterlimit="10" stroke-linecap="round" stroke-linejoin="round"/>
<path d="M368.36 374.446H357.833V333.999L363.097 328.126L368.36 333.999V374.446Z" fill="#A58167"/>
<path opacity="0.47" d="M362.82 336.769L367.418 331.672L364.759 328.68L359.495 334.553V375H362.82V336.769Z" fill="#A58167"/>
<path d="M368.36 374.446H357.833V333.999L363.097 328.126L368.36 333.999V374.446Z" stroke="#464950" stroke-width="5.0808" stroke-miterlimit="10" stroke-linecap="round" stroke-linejoin="round"/>
<path d="M342.651 374.446H332.124V333.999L337.388 328.126L342.651 333.999V374.446Z" fill="#A58167"/>
<path opacity="0.47" d="M337.111 336.769L341.71 331.672L339.05 328.68L333.787 334.553V375H337.111V336.769Z" fill="#A58167"/>
<path d="M342.651 374.446H332.124V333.999L337.388 328.126L342.651 333.999V374.446Z" stroke="#464950" stroke-width="5.0808" stroke-miterlimit="10" stroke-linecap="round" stroke-linejoin="round"/>
<path opacity="0.67" d="M101.299 201.411C102.37 201.411 103.238 200.543 103.238 199.472C103.238 198.401 102.37 197.533 101.299 197.533C100.228 197.533 99.3599 198.401 99.3599 199.472C99.3599 200.543 100.228 201.411 101.299 201.411Z" fill="#464950"/>
<path opacity="0.76" d="M90.4953 206.841C92.2701 206.841 93.7089 205.402 93.7089 203.628C93.7089 201.853 92.2701 200.414 90.4953 200.414C88.7205 200.414 87.2817 201.853 87.2817 203.628C87.2817 205.402 88.7205 206.841 90.4953 206.841Z" fill="#464950"/>
<path opacity="0.43" d="M263.806 300.478C265.122 300.478 266.189 299.411 266.189 298.096C266.189 296.78 265.122 295.713 263.806 295.713C262.49 295.713 261.424 296.78 261.424 298.096C261.424 299.411 262.49 300.478 263.806 300.478Z" fill="#C7CAD1"/>
<path opacity="0.51" d="M257.158 293.275C258.229 293.275 259.098 292.407 259.098 291.336C259.098 290.265 258.229 289.397 257.158 289.397C256.087 289.397 255.219 290.265 255.219 291.336C255.219 292.407 256.087 293.275 257.158 293.275Z" fill="#464950"/>
<path d="M-54.2275 324.691H433.517" stroke="#464950" stroke-width="5.0808" stroke-miterlimit="10" stroke-linecap="round" stroke-linejoin="round"/>
<path d="M306.083 324.247C305.972 323.416 305.972 322.585 306.083 321.699C306.803 315.271 312.565 310.617 318.992 311.282C325.42 312.003 330.074 317.765 329.409 324.192L306.083 324.247Z" fill="#AECC75"/>
<path d="M306.083 324.247C305.972 323.416 305.972 322.585 306.083 321.699C306.803 315.271 312.565 310.617 318.992 311.282C325.42 312.003 330.074 317.765 329.409 324.192L306.083 324.247Z" stroke="#464950" stroke-width="5.0808" stroke-miterlimit="10" stroke-linecap="round" stroke-linejoin="round"/>
<path d="M291.233 324.968C291.178 324.691 291.178 324.469 291.178 324.192C291.178 320.646 294.059 317.765 297.605 317.765C301.151 317.765 304.032 320.646 304.032 324.192C304.032 324.524 304.032 324.857 303.977 325.134L291.233 324.968Z" fill="#464950"/>
<path d="M238.098 324.58C238.043 324.192 238.043 323.86 238.043 323.472C238.043 318.208 242.309 313.942 247.573 313.942C252.837 313.942 257.103 318.208 257.103 323.472C257.103 323.971 257.047 324.414 256.992 324.912L238.098 324.58Z" fill="#464950"/>
<path d="M314.006 36.0776C307.246 36.0776 301.595 40.7872 300.154 47.1036C297.605 43.1143 293.173 40.5102 288.131 40.5102C285.97 40.5102 283.865 41.0088 282.036 41.8953" stroke="#464950" stroke-width="5.0808" stroke-miterlimit="10" stroke-linecap="round" stroke-linejoin="round"/>
<path d="M337.776 53.697C332.678 53.697 328.412 57.243 327.304 62.008C325.42 59.0161 322.04 57.0214 318.273 57.0214C316.61 57.0214 315.059 57.4093 313.674 58.0742" stroke="#464950" stroke-width="5.0808" stroke-miterlimit="10" stroke-linecap="round" stroke-linejoin="round"/>
<path d="M8.10511 68.823C0.736029 69.7095 -4.91545 75.9704 -4.91545 83.5612C-4.91545 83.949 -4.91545 84.2814 -4.86005 84.6693H-17.8252" stroke="#464950" stroke-width="5.0808" stroke-miterlimit="10" stroke-linecap="round" stroke-linejoin="round"/>
<path d="M8.10596 68.8229C8.54921 57.8524 17.6359 49.0981 28.7172 49.0981C38.8566 49.0981 47.2785 56.4118 48.9961 66.0526" stroke="#464950" stroke-width="5.0808" stroke-miterlimit="10" stroke-linecap="round" stroke-linejoin="round"/>
<path d="M40.6299 71.3718C43.9543 67.6042 48.8855 65.2217 54.3153 65.2217C64.3993 65.2217 72.5995 73.4219 72.5995 83.5059C72.5995 83.8937 72.5995 84.2262 72.5441 84.614H90.9391" stroke="#464950" stroke-width="5.0808" stroke-miterlimit="10" stroke-linecap="round" stroke-linejoin="round"/>
<path d="M401.825 16.7963C401.493 9.09474 395.176 3 387.419 3C380.327 3 374.454 8.09742 373.235 14.857" stroke="#464950" stroke-width="5.0808" stroke-miterlimit="10" stroke-linecap="round" stroke-linejoin="round"/>
<path d="M379.052 18.5695C376.725 15.9654 373.29 14.3032 369.522 14.3032C362.486 14.3032 356.723 20.0101 356.723 27.1022C356.723 27.3792 356.723 27.6008 356.723 27.8778H343.869" stroke="#464950" stroke-width="5.0808" stroke-miterlimit="10" stroke-linecap="round" stroke-linejoin="round"/>
<path d="M318.217 141.849H338.828" stroke="#464950" stroke-width="5.0808" stroke-miterlimit="10" stroke-linecap="round" stroke-linejoin="round"/>
<path d="M302.592 141.849H307.246" stroke="#464950" stroke-width="5.0808" stroke-miterlimit="10" stroke-linecap="round" stroke-linejoin="round"/>
<path d="M337.775 156.698H373.457" stroke="#464950" stroke-width="5.0808" stroke-miterlimit="10" stroke-linecap="round" stroke-linejoin="round"/>
<path d="M321.098 156.698H328.522" stroke="#464950" stroke-width="5.0808" stroke-miterlimit="10" stroke-linecap="round" stroke-linejoin="round"/>
<path d="M257.159 168.611H288.242" stroke="#464950" stroke-width="5.0808" stroke-miterlimit="10" stroke-linecap="round" stroke-linejoin="round"/>
<path d="M275.609 156.698H300.376" stroke="#464950" stroke-width="5.0808" stroke-miterlimit="10" stroke-linecap="round" stroke-linejoin="round"/>
<path d="M159.31 139.411H184.132" stroke="#464950" stroke-width="5.0808" stroke-miterlimit="10" stroke-linecap="round" stroke-linejoin="round"/>
<path d="M184.132 156.698H196.543" stroke="#464950" stroke-width="5.0808" stroke-miterlimit="10" stroke-linecap="round" stroke-linejoin="round"/>
<path d="M330.628 133.815C330.628 129.382 334.229 125.781 338.662 125.781C343.094 125.781 346.696 129.382 346.696 133.815C346.696 138.247 343.094 141.849 338.662 141.849" stroke="#464950" stroke-width="5.0808" stroke-miterlimit="10" stroke-linecap="round" stroke-linejoin="round"/>
<path d="M281.482 175.37C281.482 179.082 284.474 182.074 288.186 182.074C291.898 182.074 294.89 179.082 294.89 175.37C294.89 171.658 291.898 168.666 288.186 168.666" stroke="#464950" stroke-width="5.0808" stroke-miterlimit="10" stroke-linecap="round" stroke-linejoin="round"/>
<path d="M-16.2729 141.849H-2.42129" stroke="#464950" stroke-width="5.0808" stroke-miterlimit="10" stroke-linecap="round" stroke-linejoin="round"/>
<path d="M-10.6221 133.815C-10.6221 129.382 -7.02064 125.781 -2.58811 125.781C1.84442 125.781 5.44585 129.382 5.44585 133.815C5.44585 138.247 1.84442 141.849 -2.58811 141.849" stroke="#464950" stroke-width="5.0808" stroke-miterlimit="10" stroke-linecap="round" stroke-linejoin="round"/>
</svg>
