<svg width="25px" height="25px" viewBox="0 0 0.75 0.75" fill="none" xmlns="http://www.w3.org/2000/svg"><path d="M0.375 0.063c-0.138 0 -0.25 0.113 -0.25 0.25 0 0.169 0.219 0.359 0.228 0.369 0.006 0.003 0.016 0.006 0.022 0.006s0.016 -0.003 0.022 -0.006C0.406 0.672 0.625 0.481 0.625 0.313c0 -0.138 -0.113 -0.25 -0.25 -0.25m0 0.553c-0.066 -0.063 -0.188 -0.197 -0.188 -0.303 0 -0.103 0.084 -0.188 0.188 -0.188s0.188 0.084 0.188 0.188 -0.122 0.241 -0.188 0.303M0.375 0.188c-0.069 0 -0.125 0.056 -0.125 0.125s0.056 0.125 0.125 0.125 0.125 -0.056 0.125 -0.125 -0.056 -0.125 -0.125 -0.125m0 0.188c-0.034 0 -0.063 -0.028 -0.063 -0.063s0.028 -0.063 0.063 -0.063 0.063 0.028 0.063 0.063 -0.028 0.063 -0.063 0.063" fill="#0D0D0D"/></svg>