<svg fill="#000000" width="10px" height="10px" viewBox="0 0 0.3 0.3" xmlns="http://www.w3.org/2000/svg"><path d="M0.243 0.163Q0.238 0.163 0.234 0.161L0.218 0.156a0.025 0.025 0 0 0 -0.031 0.013L0.184 0.174a0.15 0.15 0 0 1 -0.034 -0.025 0.15 0.15 0 0 1 -0.025 -0.034L0.131 0.112A0.025 0.025 0 0 0 0.143 0.081L0.139 0.065 0.137 0.056A0.037 0.037 0 0 0 0.1 0.025H0.062a0.037 0.037 0 0 0 -0.037 0.043 0.237 0.237 0 0 0 0.206 0.206h0.005a0.04 0.04 0 0 0 0.025 -0.009 0.04 0.04 0 0 0 0.013 -0.028V0.199A0.037 0.037 0 0 0 0.242 0.163m0.006 0.075a0.015 0.015 0 0 1 -0.004 0.009A0.015 0.015 0 0 1 0.234 0.25 0.212 0.212 0 0 1 0.051 0.066 0.015 0.015 0 0 1 0.054 0.055 0.015 0.015 0 0 1 0.064 0.051h0.037a0.013 0.013 0 0 1 0.013 0.01l0.002 0.01 0.006 0.019 -0.018 0.008a0.013 0.013 0 0 0 -0.006 0.017 0.18 0.18 0 0 0 0.087 0.087 0.015 0.015 0 0 0 0.009 0A0.015 0.015 0 0 0 0.202 0.196L0.209 0.178l0.02 0.006 0.01 0.002a0.013 0.013 0 0 1 0.01 0.013Z"/></svg>