<svg version="1.1" id="Capa_1" xmlns="http://www.w3.org/2000/svg" xmlns:xlink="http://www.w3.org/1999/xlink" x="0px" y="0px" viewBox="0 0 100.229 100.229" style="enable-background:new 0 0 120.229 120.229;" xml:space="preserve" width="50.229" height="50.229"><g><path style="fill:#FBAC31;" d="M52.01 100.229h-3.635a0.862 0.862 0 0 1 -0.86 -0.86v-73.945a0.862 0.862 0 0 1 0.86 -0.86h3.635a0.862 0.862 0 0 1 0.86 0.86v73.945a0.862 0.862 0 0 1 -0.86 0.86"/><g><path style="fill:#FEBF4D;" d="M50.511 33.385C72.124 32.202 50.26 0 50.26 0s-20.859 34.54 0.251 33.385"/><path style="fill:#FBAC31;" d="M50.511 33.385c5.113 -0.28 7.772 -2.306 8.884 -5.221 -3.597 4.331 -10.996 4.268 -13.567 -2.606C42.726 17.265 50.26 0 50.26 0s-20.859 34.54 0.251 33.385"/><path style="fill:#FFD566;" d="M51.311 5.247s9.634 13.762 5.752 22.722c0 0.001 -2.145 -13.118 -5.752 -22.722"/></g><g><path style="fill:#FEBF4D;" d="M52.421 45.428c12.052 -17.978 -26.823 -19.876 -26.823 -19.876s15.053 37.439 26.823 19.876"/><path style="fill:#FBAC31;" d="M52.421 45.428c2.851 -4.254 2.831 -7.596 1.171 -10.237 1.297 5.478 -3.203 11.352 -10.24 9.272 -8.491 -2.51 -17.754 -18.912 -17.754 -18.912s15.053 37.439 26.823 19.876"/><path style="fill:#FFD566;" d="M30.423 27.868s16.789 0.578 21.613 9.07c0 0 -11.772 -6.175 -21.613 -9.07"/></g><g><path style="fill:#FEBF4D;" d="M50.545 45.739C38.493 27.759 77.368 25.861 77.368 25.861S62.316 63.299 50.545 45.739"/><path style="fill:#FBAC31;" d="M50.545 45.739c-2.851 -4.254 -2.831 -7.597 -1.171 -10.237 -1.298 5.478 3.203 11.352 10.239 9.272 8.491 -2.51 17.755 -18.912 17.755 -18.912s-15.053 37.436 -26.823 19.876"/><path style="fill:#FFD566;" d="M72.545 28.178s-16.789 0.578 -21.613 9.07c0 0 11.771 -6.175 21.613 -9.07"/></g><g><path style="fill:#FEBF4D;" d="M51.858 62.278c12.564 -18.743 -27.965 -20.722 -27.965 -20.722S39.585 80.586 51.858 62.278"/><path style="fill:#FBAC31;" d="M51.858 62.278c2.972 -4.434 2.951 -7.919 1.221 -10.673 1.352 5.712 -3.339 11.836 -10.676 9.668 -8.852 -2.616 -18.509 -19.716 -18.509 -19.716S39.585 80.588 51.858 62.278"/><path style="fill:#FFD566;" d="M28.922 43.97s17.504 0.605 22.532 9.456c0.001 0 -12.272 -6.439 -22.532 -9.456"/></g><g><path style="fill:#FEBF4D;" d="M47.724 64.448C35.16 45.705 75.689 43.726 75.689 43.726S59.997 82.756 47.724 64.448"/><path style="fill:#FBAC31;" d="M47.724 64.448c-2.972 -4.434 -2.951 -7.919 -1.221 -10.673 -1.352 5.712 3.339 11.834 10.676 9.667 8.852 -2.615 18.509 -19.716 18.509 -19.716S59.997 82.756 47.724 64.448"/><path style="fill:#FFD566;" d="M70.66 46.141s-17.503 0.603 -22.532 9.456c-0.001 -0.001 12.272 -6.439 22.532 -9.456"/></g><g><path style="fill:#FEBF4D;" d="M48.848 80.124c12.905 -19.253 -28.726 -21.285 -28.726 -21.285S36.242 98.931 48.848 80.124"/><path style="fill:#FBAC31;" d="M48.848 80.124c3.053 -4.554 3.031 -8.135 1.254 -10.964 1.388 5.868 -3.432 12.158 -10.969 9.932 -9.094 -2.687 -19.012 -20.253 -19.012 -20.253S36.242 98.931 48.848 80.124"/><path style="fill:#FFD566;" d="M25.288 61.319s17.98 0.62 23.147 9.713c0 0 -12.607 -6.614 -23.147 -9.713"/></g><g><path style="fill:#FEBF4D;" d="M51.381 80.228C38.474 60.975 80.107 58.943 80.107 58.943S63.986 99.035 51.381 80.228"/><path style="fill:#FBAC31;" d="M51.381 80.228c-3.053 -4.555 -3.031 -8.135 -1.254 -10.964 -1.389 5.867 3.429 12.157 10.966 9.931 9.094 -2.687 19.014 -20.252 19.014 -20.252S63.986 99.035 51.379 80.228"/><path style="fill:#FFD566;" d="M74.94 61.422s-17.978 0.62 -23.147 9.713c0 0 12.607 -6.614 23.147 -9.713"/></g></g></svg>